<?xml version="1.0" encoding="utf-8"?>
<!-- Generator: Adobe Illustrator 24.0.1, SVG Export Plug-In . SVG Version: 6.00 Build 0)  -->
<svg version="1.1" xmlns="http://www.w3.org/2000/svg" xmlns:xlink="http://www.w3.org/1999/xlink" x="0px" y="0px"
	 viewBox="0 0 346.5 44.3" style="enable-background:new 0 0 346.5 44.3;" xml:space="preserve">
<style type="text/css">
	.st0{fill:#CCAE88;}
</style>
<g id="J">
	<path id="J_1_" class="st0" d="M0,44.3V0.6h3.1v40.6L0,44.3z"/>
</g>
<g id="I">
	<path id="I_1_" class="st0" d="M11.2,30.7V0.6h3.1v30.1H11.2z"/>
</g>
<g id="M">
	<path class="st0" d="M49.2,30.7V8.8L38.3,30.7h-2L25.5,8.8v21.9h-3V0.6h2.1L37.4,26L50.1,0.6h2.1v30.1H49.2z"/>
</g>
<g id="M_1_">
	<path id="M_2_" class="st0" d="M86.8,30.7V8.8L75.9,30.7h-2L63.1,8.8v21.9h-3V0.6h2.1L74.9,26L87.7,0.6h2.1v30.1H86.8z"/>
</g>
<g id="Y">
	<path id="Y_1_" class="st0" d="M107.2,18v12.7H104V18L94.2,0.6h3.5l7.8,14.7l7.8-14.7h3.5L107.2,18z"/>
</g>
<g id="C">
	<path id="C_1_" class="st0" d="M155.5,4.2c-1-0.5-4.7-2.6-9.8-2.6c-7.7,0-14,6.2-14,14.2c0,7.9,6.1,14.2,14,14.2
		c5.2,0,8.8-2.1,9.9-2.6v1.9c-0.9,0.4-4.1,2.4-10,2.4c-8.7,0-15.8-6.8-15.8-15.7c0-9,7.3-15.8,15.8-15.8c5.2,0,9.1,2,9.9,2.4
		L155.5,4.2z"/>
</g>
<g id="A">
	<path id="A_1_" class="st0" d="M171.1,0.7l10.7,30.1h-2l-4-11.4h-11.3l-4,11.4h-2l10.7-30.1H171.1z M165,17.9h10.3l-4.8-14
		l-0.3-1.1L169.8,4L165,17.9z"/>
</g>
<g id="L">
	<path id="L_1_" class="st0" d="M186.5,30.8V0.7h1.8v28.4h15.6v1.6H186.5z"/>
</g>
<g id="D">
	<path id="D_1_" class="st0" d="M216.9,30.8h-8.3V0.7h8c8.6,0,16.8,5.5,16.8,15.2C233.4,25.7,225.4,30.8,216.9,30.8z M216.6,2.4
		h-6.2v26.7h6.5c7.8,0,14.7-4.6,14.7-13.2C231.5,7.4,224.5,2.4,216.6,2.4z"/>
</g>
<g id="E">
	<path id="E_1_" class="st0" d="M240.1,30.8V0.7h15.9v1.6h-14.1v12.4h10.9v1.6h-10.9v12.8h14.8v1.6H240.1z"/>
</g>
<g id="R">
	<path id="R_1_" class="st0" d="M279.4,9.4c0,4.6-3.1,7.7-7.8,8.5L284,28.9c1,1,7.9,6.3,9,6.3c1,0,1.6-0.5,2.1-1.1l0.7,0.7
		c-0.4,0.6-1.3,1.9-3.2,1.9c-2,0-8.7-5.7-10.1-7l-13-11.5H265v12.6h-1.8V0.7h6C275.6,0.7,279.4,4.1,279.4,9.4z M268.8,16.7
		c5.1,0,8.7-2.8,8.7-7.3c0-4.4-2.9-7-8.4-7h-4v14.3H268.8z"/>
</g>
<g id="O">
	<path id="O_1_" class="st0" d="M284.8,15.8c0-8.7,6.8-15.8,16-15.8c9.2,0,16,7.1,16,15.8c0,8.7-6.8,15.8-16,15.8
		C291.6,31.6,284.8,24.5,284.8,15.8z M286.7,15.8c0,7.8,6,14.2,14.1,14.2c8.1,0,14.1-6.4,14.1-14.2c0-7.8-6-14.2-14.1-14.2
		C292.7,1.6,286.7,8,286.7,15.8z"/>
</g>
<g id="N">
	<path id="N_1_" class="st0" d="M344.7,30.8v-7.3L325.2,3.9v26.9h-1.8V0.7h1.1L344.7,21V0.7h1.8v30.1H344.7z"/>
</g>
</svg>
