<?xml version="1.0" encoding="utf-8"?>
<!-- Generator: Adobe Illustrator 24.1.0, SVG Export Plug-In . SVG Version: 6.00 Build 0)  -->
<svg version="1.1" id="regular" xmlns="http://www.w3.org/2000/svg" xmlns:xlink="http://www.w3.org/1999/xlink" x="0px" y="0px"
	 viewBox="0 0 512.3 449.8" style="enable-background:new 0 0 512.3 449.8;" xml:space="preserve">
<style type="text/css">
	.st0{fill:#CCAE88;}
</style>
<path class="st0" d="M281.4,266.9c-19.8-22.4-38.3-162.3-39.6-169.2C229.2,17.4,188,4.2,155.6,7.3c-40,3.8-93.3,59.7-150.2,109.9
	c-6.3,5.6-7.2,15.1-2.1,21.8l22.6,29.2c5.2,6.8,14.9,8.3,21.8,3.3c19-13.4,27-17.9,30-19.5c42.2,14.1,43.3,297.8,154,297.8
	c109.7,0,359.7-312.9,255.7-424.1c-39.9-42.7-167.4-46.3-212.1,99.8c-4,13.1,9.4,24.9,21.8,19.3c9.7-4.3,19.4-6.5,29-6.5
	c14.2,0,15.2,5.3,16,9.2C348.7,180.6,299.4,253.8,281.4,266.9z M374.7,153.3c0-13.8-4-25.1-11.8-33.3
	c-10.4-10.9-27.5-15.1-46.6-13.1c38.3-86.1,125-83.7,147.8-59.3c74.9,80.2-139.5,370.2-232.3,370.2c-82.5,0-74.8-298.1-155.6-298.1
	c-5.4,0-11.1,1.3-34.2,16.9l-4.2-5.4c32.5-29.3,94-89.5,120.9-92c52-5.2,50.9,72.1,53.7,77.3c20.4,137.4,37.8,183.7,68.7,183.7
	C313.4,300.2,374.7,204.1,374.7,153.3L374.7,153.3z"/>
</svg>
